# xmcd
#
# Track frame offsets:
#	150
#	19002
#	33470
#	49307
#	60549
#	78649
#	91427
#	100844
#	112597
#
# Disc length: 1650 seconds
#
# Revision: 0
# Processed by: cddbd v1.5.2PL0 Copyright (c) Steve Scherf et al.
# Submitted via: EasyCDDAExtractor 12.0.7.1
#
DISCID=68067009
DTITLE=DiscoBay Blues
DYEAR=2007
DGENRE=Blues
TTITLE0=Udduunia
TTITLE1=Hotdog Blues
TTITLE2=Ajunngilarmi taamaaqili
TTITLE3=Periariarit
TTITLE4=Blue Jeans
TTITLE5=Tamatta akuusa
TTITLE6=Kinaassutsivit naluaatit
TTITLE7=Eqqissineq
TTITLE8=Pilluarnersaavunga
EXTD=
EXTT0=
EXTT1=
EXTT2=
EXTT3=
EXTT4=
EXTT5=
EXTT6=
EXTT7=
EXTT8=
PLAYORDER=
